<?xml version="1.0" encoding="UTF-8" standalone="no"?>
<!-- Uploaded to: SVG Repo, www.svgrepo.com, Generator: SVG Repo Mixer Tools -->

<svg
   aria-label="Codeberg"
   role="img"
   viewBox="0 0 512 512"
   version="1.1"
   id="svg4"
   sodipodi:docname="codeberg.svg"
   inkscape:version="1.4 (e7c3feb1, 2024-10-09)"
   xmlns:inkscape="http://www.inkscape.org/namespaces/inkscape"
   xmlns:sodipodi="http://sodipodi.sourceforge.net/DTD/sodipodi-0.dtd"
   xmlns="http://www.w3.org/2000/svg"
   xmlns:svg="http://www.w3.org/2000/svg">
  <sodipodi:namedview
     id="namedview4"
     pagecolor="#ffffff"
     bordercolor="#000000"
     borderopacity="0.25"
     inkscape:showpageshadow="2"
     inkscape:pageopacity="0.0"
     inkscape:pagecheckerboard="false"
     inkscape:deskcolor="#d1d1d1"
     inkscape:zoom="0.94538564"
     inkscape:cx="225.30488"
     inkscape:cy="191.98515"
     inkscape:window-width="1512"
     inkscape:window-height="916"
     inkscape:window-x="0"
     inkscape:window-y="38"
     inkscape:window-maximized="1"
     inkscape:current-layer="svg4" />
  <defs
     id="defs3">
    <linearGradient
       id="A"
       x1="259.804"
       x2="383.132"
       y1="161.4"
       y2="407.835"
       gradientUnits="userSpaceOnUse">
      <stop
         offset="0"
         stop-color="#ffffff"
         stop-opacity="0"
         id="stop1" />
      <stop
         offset=".5"
         stop-color="#71c2ff"
         id="stop2" />
      <stop
         offset="1"
         stop-color="#39aaff"
         id="stop3" />
    </linearGradient>
  </defs>
  <path
     fill="url(#A)"
     d="M259.804 161.4c-.44 0-1.1 0-1.32.44l-.44 1.1L332.04 440.21a192.039 192.039 0 0 0 86.77-74.437L261.125 162.06a1.762 1.762 0 0 0-1.321-.661z"
     opacity=".5"
     paint-order="stroke markers fill"
     id="path3" />
  <path
     fill="#2185d0"
     d="M255.3 71.8a192 192 0 0 0-162 294l160.1-207c.5-.6 1.5-1 2.6-1s2 .4 2.6 1l160 207a192 192 0 0 0 29.4-102c0-106-86-192-192-192a192 192 0 0 0-.7 0z"
     paint-order="stroke markers fill"
     id="path4" />
</svg>
