<?xml version="1.0" encoding="UTF-8" standalone="no"?>
<!-- Created with Inkscape (http://www.inkscape.org/) -->

<svg
   width="24"
   height="24"
   viewBox="0 0 6.3499997 6.3500002"
   version="1.1"
   id="svg1"
   xml:space="preserve"
   inkscape:version="1.4 (e7c3feb1, 2024-10-09)"
   sodipodi:docname="icon.svg"
   xmlns:inkscape="http://www.inkscape.org/namespaces/inkscape"
   xmlns:sodipodi="http://sodipodi.sourceforge.net/DTD/sodipodi-0.dtd"
   xmlns="http://www.w3.org/2000/svg"
   xmlns:svg="http://www.w3.org/2000/svg"><sodipodi:namedview
     id="namedview1"
     pagecolor="#ffffff"
     bordercolor="#000000"
     borderopacity="0.25"
     inkscape:showpageshadow="2"
     inkscape:pageopacity="0.0"
     inkscape:pagecheckerboard="0"
     inkscape:deskcolor="#d1d1d1"
     inkscape:document-units="mm"
     inkscape:zoom="21.395998"
     inkscape:cx="10.329035"
     inkscape:cy="12.712658"
     inkscape:window-width="1472"
     inkscape:window-height="773"
     inkscape:window-x="0"
     inkscape:window-y="38"
     inkscape:window-maximized="0"
     inkscape:current-layer="g5" /><defs
     id="defs1"><filter
       id="mask-powermask-path-effect4_inverse"
       inkscape:label="filtermask-powermask-path-effect4"
       style="color-interpolation-filters:sRGB"
       height="100"
       width="100"
       x="-50"
       y="-50"><feColorMatrix
         id="mask-powermask-path-effect4_primitive1"
         values="1"
         type="saturate"
         result="fbSourceGraphic" /><feColorMatrix
         id="mask-powermask-path-effect4_primitive2"
         values="-1 0 0 0 1 0 -1 0 0 1 0 0 -1 0 1 0 0 0 1 0 "
         in="fbSourceGraphic" /></filter></defs><g
     inkscape:label="Layer 1"
     inkscape:groupmode="layer"
     id="layer1"><g
       style="fill:#ff8c00;fill-opacity:1"
       id="g1"
       transform="matrix(0.11904762,0,0,0.11904762,12.47619,117.2381)" /><g
       style="fill:#e3e3e3"
       id="g5"
       transform="matrix(0.15,0,0,0.15,-6,138)"><g
         style="fill:#15437b;fill-opacity:1"
         id="g7"
         transform="matrix(0.04409722,0,0,0.04409722,40,-877.66666)"><path
           d="m 160,-160 c -22,0 -40.83333,-7.83333 -56.5,-23.5 C 87.833333,-199.16667 80,-218 80,-240 v -480 c 0,-22 7.833333,-40.83333 23.5,-56.5 15.66667,-15.66667 34.5,-23.5 56.5,-23.5 h 240 l 80,80 h 320 c 22,0 40.83333,7.83333 56.5,23.5 15.66667,15.66667 23.5,34.5 23.5,56.5 v 400 c 0,22 -7.83333,40.83333 -23.5,56.5 -15.66667,15.66667 -34.5,23.5 -56.5,23.5 z"
           id="path1"
           style="fill:#15437b;fill-opacity:1"
           sodipodi:nodetypes="ssssssccsssssss" /></g><g
         style="fill:#e3e3e3;fill-opacity:0.306283"
         id="g8"
         transform="matrix(0.02645834,0,0,0.02645834,43.175,-884.36944)"><path
           d="M 500,-520 V -800 H 160 v 525 l 46,-45 H 800 V -800 H 700 v 280 L 600,-580 Z M 80,-80 v -720 q 0,-33 23.5,-56.5 Q 127,-880 160,-880 h 640 q 33,0 56.5,23.5 23.5,23.5 23.5,56.5 v 480 q 0,33 -23.5,56.5 Q 833,-240 800,-240 H 240 Z m 80,-720 v 480 z"
           id="path1-0"
           style="fill:#e3e3e3;fill-opacity:0.306283" /></g><g
         style="fill:#ff8c00;fill-opacity:1"
         id="g6"
         transform="matrix(0.02806187,0,0,0.02806187,52.106692,-881.34678)"><path
           d="m 260,-160 q -91,0 -155.5,-63 Q 40,-286 40,-377 q 0,-78 47,-139 47,-61 123,-78 17,-72 85,-137 68,-65 145,-65 33,0 56.5,23.5 23.5,23.5 23.5,56.5 v 242 l 64,-62 56,56 -160,160 -160,-160 56,-56 64,62 v -242 q -76,14 -118,73.5 -42,59.5 -42,122.5 h -20 q -58,0 -99,41 -41,41 -41,99 0,58 41,99 41,41 99,41 h 480 q 42,0 71,-29 29,-29 29,-71 0,-42 -29,-71 -29,-29 -71,-29 h -60 v -80 q 0,-48 -22,-89.5 -22,-41.5 -58,-70.5 v -93 q 74,35 117,103.5 43,68.5 43,149.5 69,8 114.5,59.5 45.5,51.5 45.5,120.5 0,75 -52.5,127.5 Q 815,-160 740,-160 Z m 220,-358 z"
           id="path1-8"
           style="fill:#ff8c00;fill-opacity:1" /></g></g></g></svg>
